<?xml version="1.0" encoding="UTF-8"?>
<svg id="Layer_2" data-name="Layer 2" xmlns="http://www.w3.org/2000/svg" viewBox="0 0 366.84 240.55">
  <defs>
    <style>
      .cls-1 {
        fill: #efeff3;
      }
    </style>
  </defs>
  <g id="Layer_1-2" data-name="Layer 1">
    <path class="cls-1" d="M218.72,79.03c3.83-8.37,8.33-16.45,10.7-25.45.54-2.07.29-3.89-1.19-5.06-1.48-1.18-2.87.27-4.1,1.19-.75.56-1.48,1.13-2.44,1.28-1.43.22-2.37,1.09-3.04,2.3-5.43,9.93-10.92,19.84-14.93,30.46-.93,2.46-2.21,4.97-1.28,7.84.33,1.04-.45,2.08-.71,3.13-.25,1.05-.77.69-1.31.21-4.95-4.37-9.42-9.16-13.16-14.62-.47-.7-.56-1.15.05-1.79,2.96-3.08,5.74-6.35,9.14-8.96,6.4-4.91,12.85-9.74,19.29-14.61,2.07-1.57,2.27-2.98.47-4.79-.67-.68-.98-1.36-1.01-2.23-.18-4.29-1.88-7.95-4.72-11.08-3.22-3.57-6.74-6.88-9.73-10.63-2.86-3.58-7.35-4.71-10.5-7.79-.84-.82-2.15-.19-3.08.28-1.08.56-.3,1.49-.09,2.26.49,1.87,1.04,3.73,1.49,5.62.32,1.39.42,2.89-.55,4.02-1.09,1.26-.68,2.06.24,3.16,1.53,1.83,3.73,3.72,4,5.8.21,1.59-2.18,3.49-3.32,5.31-.58.92-1.02,1.57-2.35,1.2-1.15-.31-2.32.45-2.64,1.48-.78,2.51-2.55,4.38-3.81,6.56-3.16,5.46-5.38,11.35-7.57,17.23-3.35,8.95-7.88,17.35-11.69,26.08-.52,1.18-.95,2.39-2.44,2.45-1.51.07-2.11-1.16-2.66-2.27-2.42-4.86-4.76-9.76-7.2-14.61-.95-1.89-.75-3.46.88-4.76,3.56-2.86,7.07-5.8,10.77-8.47,4.84-3.49,9.91-6.68,14.53-10.48.93-.76,2.97-1.76.38-3.15-.75-.4-.13-.92.01-1.39.8-2.73-.17-5.2-2.59-6.64-1.53-.91-3.22-1.72-4.12-3.33-1.02-1.81-2.66-2.71-4.37-3.66-2.24-1.24-4.8-1.87-6.79-3.53-3.13-2.62-6.66-4.52-10.37-6.14-2.83-1.24-5.87-1.88-8.55-3.6-1.42-.91-3.14.07-4.39,1.24-.32.3-.42.81-.04,1.02,2.94,1.69,3.88,5.18,6.57,7.14,2.15,1.56,2.32,3.08.71,5.15-.92,1.18-.61,1.71.47,2.3.54.3,1.04.68,1.56,1.02,3.05,2.01,3.07,2.24.6,4.76-.37.37-.78.7-1.1.13-2.42-4.35-6.45-3.82-10.24-3.08-5.8,1.13-11.67,1.41-17.5,2.11-.63.08-1.35.23-1.62-.5-1.05-2.89-3.11-1.39-3.93-.4-1.85,2.22-5.93,2.88-5.23,7,.03.17-.18.5-.35.56-1.8.7-2.84,2.54-4.92,2.94-2.36.44-3.88,2.43-3.16,4.33.88,2.32-.1,3.93-1.12,5.7-.86,1.48-1.8,2.93-2.44,4.5-.91,2.23-1.82,1.69-3.01.28-3.54-4.21-6.75-8.97-11.46-11.78-4.53-2.71-7.27-6.81-10.61-10.48-.83-.92-1.54-1.95-2.35-2.89-1.72-2.01-3.45-4-5.2-5.97-.34-.39-.74-.91-1.36-.56-.54.29-.65.85-.54,1.42.23,1.19.49,2.37.76,3.62-1.5.04-2.04-1.11-2.81-1.9-1.03-1.05-1.91-2.38-3.49-2.55-1.8-.19-3.22.69-3.94,2.32-.67,1.5-.07,2.8,1.07,3.96,1.09,1.1,2.96,1.69,2.79,3.71-.17,2.14.88,3.7,2.25,5.14,1.39,1.46,2.8,2.9,4.22,4.34,2.03,2.07,1.8,3.08-.42,4.99-2.31,1.99-4.61,4-5.89,6.99-3.11,7.27-6.72,14.33-9.64,21.67-4.09,10.24-10.93,19.33-12.64,30.58-.45,2.94-1.68,5.78-2.75,8.59-.62,1.63-.52,3.56-2,4.87-4.52,4.03-8.8,8.3-12.62,13.02-1.79,2.22-5.2,2.78-6.07,6.03-.38,1.43-1.61,2.43-2.68,3.45-1.3,1.24-2.44,2.61-3.34,4.17-.83,1.45-.55,3.13.29,4.18.92,1.16,2.24-.05,3.31-.57.42-.2.76-.54,1.15-.79,4.04-2.55,6.85-6.52,10.75-9.25,4.77-3.35,9.08-7.27,13.3-11.28,12.94-12.29,25.64-24.84,39.14-36.54.7-.6,1.4-1.22,2.09-1.83-3.58,6.43-6.99,12.78-10.21,19.23-.72,1.45-.76,2.76-.63,4.24.1,1.16.73,1.65,1.68,1.2,2.2-1.05,2.92,1.18,3.42,2.03,1.11,1.91,1.38,2.34,2.79.34,2.83-4.03,7.11-5.86,11.12-8.17,2.55-1.47,5.14-2.89,7.59-4.52,8.08-5.34,16.12-10.73,24.13-16.18,1.45-.98,3.31-1.72,3.95-3.47.51-1.39,1.4-2.01,3.21-2.93-2.52,4.95-2.97,9.85-4.63,14.39-.24.68-1.37,1.95.25,2.18,2.79.41,2.17,1.85,1.34,3.44-1.42,2.69-2.45,5.53-3.54,8.35-.24.63-.8,1.43-.11,1.92.78.55,1.42-.25,1.98-.74,1.55-1.34,2.59-3.07,3.56-4.85,3.65-6.78,6.32-13.99,9.21-21.1,2.91-7.15,7.63-13.37,10.27-20.65.66.24.68.93.93,1.48,1.02,2.27,2.03,4.53,3.05,6.79,3.22,7.1,8.9,12.71,11.99,19.89.48,1.11,1.22.56,1.9.13,1.15-.73,2.43-.9,3.45.06,2.52,2.37,5.51,4.32,6.97,7.68.39.91.92,1.8,1.79,2.4.64-.05,1.28-.11,1.92-.16-.18.07-.16.13.04.12.05,0,.11-.07.16-.12.85.01,1.7.03,2.55.05-.82-4.99-2.01-9.86-4.64-14.26-.53-.88-.23-1.59.22-2.37,3.54-6.1,6.67-12.43,9.78-18.76.33-.66.69-2.24,1.66-.52,3.26,5.75,7.98,10.28,12.36,15.08,3.04,3.32,6.14,6.58,9.27,9.8,2.36,2.42,4.94,4.52,8.63,4.37.08,0,.16.37.25.56,3.58.52,7.18.18,10.77.36-.1-2.01-1.01-3.7-2.06-5.36-2.19-3.43-5.12-6.21-7.92-9.1-.72-.73-1.11-1.29-.58-2.39,3.49-7.35,6.94-14.72,10.32-22.12ZM53.81,114.02c-3.72,3.72-7.72,7.15-11.6,10.72,1.82-6.91,4.4-13.52,7.8-19.73,5.55-10.13,11.37-20.11,17.02-30.18.86-1.53,1.38-1.96,2.7-.37,3.21,3.89,6.54,7.67,9.91,11.43,1.48,1.65,1.46,2.71-.28,4.36-8.46,7.99-17.32,15.53-25.55,23.77ZM138.69,59.71c-3.28,4.66-5.44,9.91-7.93,14.98-3.79,7.71-8.07,15.19-11.26,23.2-.21.54-.29,1.26-1.13,1.3-4.19.21-7.53,2.67-11.12,4.38-9.07,4.3-18.3,8.27-26.92,13.73-.09-1.26.62-1.95,1.1-2.69,3.65-5.69,6.84-11.63,10.04-17.58.69-1.28,1.65-2.08,2.88-2.86,6.92-4.41,14.46-7.74,21.36-12.16,2.58-1.65,3.19-3.22,2.22-6.02-.59-1.71-2.19-1.71-3.73-1.48-4.02.61-8.06,1.12-12.16,3.26.81-2.74,2.3-4.55,3.22-6.62,1.03-2.3,2.93-4.24,2.83-7.01-.04-.89.77-.8,1.36-.91,8.44-1.57,16.5-4.48,24.75-6.74,2.61-.71,5.04-1.67,7.75-3.41-.77,2.81-1.96,4.78-3.26,6.63ZM146.22,69.8c-.55.28-1.19.55-1.76.13-.75-.55-.06-1.13.14-1.63,2.32-5.63,5.33-10.96,7.2-16.79.32-1.02.86-.54,1.4-.2,2.8,1.76,5.44,3.77,8.5,5.01-3.49,5.65-8.78,8.99-13.9,12.52-.5.35-1.03.68-1.58.96ZM186.05,66.74c2.09-4.38,4.18-8.75,6.28-13.12,1.07-2.22,2.48-4.29,2.57-6.9.02-.68.22-1.75,1.04-1.91.8-.15.96.88,1.32,1.42,1.62,2.46,3.16,4.97,4.78,7.43.56.85.65,1.36-.31,2.07-5.1,3.74-10.4,7.2-15.16,11.4-.18-.13-.35-.26-.52-.39ZM328.43,12.47s.01.1,0,.1c.69-1.2,1.4-2.4,2.07-3.62.23-.41.4-.89-.06-1.26-.36-.29-.72-.05-1.06.13-1.95.97-3.77,2.17-5.47,3.51-8.72,6.88-17.02,14.24-24.8,22.17-.54.55-1.08,1.11-1.67,1.62-.29.25-.72.37-1.02-.03-.21-.29,0-.54.17-.82,1.2-2.02,2.4-4.04,3.55-6.09,3.18-5.68,6.57-11.25,8.86-17.39.41-1.11.93-2.27.57-3.38-.46-1.41-.55-2.66.07-4.02.35-.77,0-1.53-.6-2.11-.69-.69-1.44-.32-2.17-.06-1.26.45-1.96,1.5-2.58,2.58-1.54,2.69-3.02,5.42-4.51,8.14-.46.83-.9,1.67-2,1.73-1.59.09-2.52,1.22-3.32,2.33-1.36,1.88-2.72,3.8-3.76,5.86-5.53,11.01-11.02,22.05-16.39,33.14-4.05,8.36-8.95,16.33-11.67,25.31-1.16,3.84-1.54,7.84-2.99,11.65-1.36,3.57-3.31,7.35-.89,11.19,2.92-3.03,5.11-6.69,6.88-10.59,4.34-9.55,10.36-18.2,14.94-27.62.2-.42,1.35-2.46,1.89-2.42.56.04,4.23,4.19,5.25,5.39,5.55,6.5,9.25,12.76,16.34,17.42.65.43,1.53.87,2.19.53,1.66-.84.86-4.87,1.63-3.84,2.73,3.65,8.82,9.38,12.54,11.73.21-1.21.09-2.11-.31-2.81-2.07-3.65-3.06-7.8-5.39-11.32-5.93-8.95-13.6-16.48-20.38-24.74-.84-1.02-1.46-1.63-.16-2.8,10.81-9.79,21.01-20.23,31.96-29.88,6.51-5.74,13-11.54,18.74-18.1.92-1.05,2.6-2.39,1.37-3.71-1.01-1.09-2.57.32-3.71,1.01-5.2,3.14-9.71,7.17-14.23,11.17l.09-.12ZM234.35,105.01c5.91-2.7,11.58-5.93,15.52-11.14,2.32-3.07,4.92-5.72,7.72-8.26.69-.63,1.28-1.36,1.94-2.01,1.43-1.4.85-2.86.07-4.25-.77-1.37-2.01-.79-3.12-.54-1.18.27-2.1.98-2.95,1.8-3.55,3.38-7.48,6.27-11.49,9.06-3.43,2.39-6.82,4.87-10.83,6.26-.88.31-1.86.6-2.63-.17-.72-.73-.22-1.61-.04-2.42,1.16-5.04,3.51-9.54,5.86-14.12,3.67-7.16,8.08-13.9,11.41-21.26,1.87-4.11,4.72-7.86,7.57-11.42,1.6-1.99,3.38-4.03,5.62-5.46.5-.32,1.16-.69,1.73-.26.54.41.02.99-.02,1.5-.43,4.71-.89,9.41-1.21,14.13-.11,1.61.72,2.05,2.22,1.22,1.89-1.05,3.05-2.34,3.1-4.73.05-2.23.68-4.44,1.02-6.66.17-1.15.89-1.64,1.9-2.08,1.52-.66,2.81-1.59,2.81-3.59-.01-3.98.74-7.84,1.65-11.71.95-4.01-2.11-6.71-6.02-5.56-3.03.9-5.64,2.59-8.02,4.59-3.54,2.98-6.61,6.21-9.13,10.32-2.67,4.35-6.04,8.42-9.13,12.59-8.19,11.04-14.24,23.25-19.03,36.09-1.83,4.91-3.57,9.91-1.91,15.33,1.11,3.64,2.56,4.81,6.53,4.78,2.94-.31,5.99-.71,8.87-2.02ZM221.46,43.12c3.24-2.38,6.51-4.72,9.66-7.21,1.43-1.14,2.32-.87,3.51.35,1.68,1.73,3.25,3.53,4.74,5.42,1.22,1.54,2.92,1.33,3.74-.43.4-.87.32-1.8-.07-2.7-.86-1.99-1.74-3.97-3.27-5.55-1.19-1.24-1.1-2.04.38-3.1,4.41-3.16,8.05-7.26,12.47-10.42.9-.65,1.39-1.54.63-2.6-.74-1.03-1.73-1.26-2.85-.59-.73.44-1.45.89-2.15,1.38-.51.36-.98.85-1.63.3-1.45-1.23-2.68-.27-3.77.53-2.06,1.5-4.23,2.89-5.95,4.82-1.01,1.13-1.64,1-2.46-.24-1.53-2.33-3.12-4.62-4.85-6.8-1.28-1.62-3.77-1.2-3.89.73-.15,2.29-.29,4.22-1.79,6.25-1.1,1.5.85,2.95,2.07,3.95,1.79,1.47,2.09,2.74.32,4.46-2.91,2.83-5.02,6.27-6.99,9.8-.58,1.04-.98,1.93.33,2.78.64-.39,1.27-.7,1.82-1.11ZM295.16,101.28c-5.22,1.7-10.19,3.87-14.13,8.05-5.62,5.95-10.41,12.51-14.46,19.55-3.07,5.33-6.19,10.78-6.35,17.28-.03,1.34-.72,2.68-1.18,3.98-.51,1.4-1.11,1.41-2.05.21-1.04-1.34-2.2-2.62-3.49-3.72-1.47-1.24-15.36-11.07-19.62-14.08-.51-.36-.55-1.11-.07-1.49.24-.18.41-.4.41-.62-.01-.53.41-.91.82-1.14,5.02-2.78,10.03-5.56,15.02-8.39.87-.5,1.39-.45,1.84.46.66,1.31,1.37,2.61,2.05,3.91.39.73.84,1.29,1.8,1.15,3.11-.43,4.49-2.96,3.25-5.82-.69-1.6-1.97-3.06-1.41-5.02.83-2.96-1.19-4.6-2.97-6.31-1.56-1.51-3.31-.64-4.79,0-11.58,5.01-21.91,12.23-32.63,18.76-4.29,2.61-3.46,8.35,1.07,10.47,2.16,1.01,4.69,1.37,6.44,3.15,5.38,5.46,11.68,9.69,18.13,13.73.93.58,1.39,1.1.12,1.77-2.4,1.26-4.76,2.63-7.23,3.74-7.13,3.18-14.66,5.29-21.92,8.11-1.69.66-2.01.39-2.23-1.39-.58-4.53.83-9.01-.62-13.68-1.17-3.78-.61-8.1-.26-12.22.67-8.09,1.75-16.22-.1-24.31-.21-.91.12-1.47.88-1.54,1.67-.15,3.1-.98,4.64-1.45,3.98-1.24,7.76-2.93,11.67-4.9-2.99-1.23-5.97-1.02-8.83-1.52-3.59-.18-7.19.16-10.77-.36-8.87.9-17.6,2.55-26.31,4.39-3.7.78-7.43,1.5-11.22,1.71-.85-.02-1.7-.04-2.55-.05h-.15l-.03-.04-.02.04c-.64.05-1.28.11-1.92.16-.38.98-1.28,1.02-2.12,1.15-2.91.46-5.84.83-8.74,1.37-4.89.92-9.99.75-14.73,2.02-7.29,1.95-14.6,3.61-22.07,4.48-4.35.51-7.78,2.81-11.32,4.96-.9.54-1.86,1.45-1.06,2.7.72,1.12,1.64.28,2.48-.01.43-.15.86-.33,1.31-.45,1.73-.42,3.28-.59,3.41,1.92.08,1.51,1.23,1.4,2.25,1.16,4.14-.99,8.45-1.1,12.49-2.66,1.55-.6,3.37-.98,5.01-.83,3.96.37,4.21-.17,2.35,3.61-.24.49-.39,1.01-.59,1.52-5.42,13.83-9.92,27.99-14.63,42.07-1.7,5.1-3.41,10.35-2.89,15.87.18,1.87,1.08,3.65.41,5.6-.32.95-.45,1.96-.63,2.95-.1.55-.66,1.31.25,1.58.75.21,1.05-.55,1.28-1.11.73-1.8,1.48-3.57,2.6-5.18,2.48-3.58,4.68-7.35,6.48-11.3,8.32-18.26,16.62-36.54,23.75-55.31.71-1.86,1.8-2.6,3.6-2.6,3.2,0,6.32-.71,9.49-.99.67-.06,1.48-.54,1.99.07.55.66-.21,1.29-.46,1.9-5.01,12.11-10.3,24.09-15.76,36-2.85,6.2-4.61,12.77-6.7,19.25-2.36,7.36-6.01,14.26-8.7,21.54-2.83,7.64-5.27,15.36-6.21,23.49-.15,1.37-.15,2.7.46,4.16,3.07-3.43,5.16-7.13,7.13-10.92,7.88-15.15,13.22-31.42,20.63-46.78,7.99-16.54,15.56-33.29,22.69-50.22.6-1.43,1.5-2.24,3.05-2.5,5.04-.87,10.15-1.4,15.06-2.96.58-.18,1.21-.35,1.53.5.81,2.13-.38,6.53-2.38,7.25-2.27.83-3.43,2.55-4.58,4.35-1.03,1.64-2.04,3.29-2.99,4.97-6.04,10.59-13.14,20.55-18.79,31.38-1.8,3.45-3.24,7.04-4.74,10.62-1.52,3.62.01,7.64-1.57,11.25-.04.1.2.34.31.51,1.09-.24,1.54-1.11,2.12-1.8,3.38-4.07,6.44-8.36,9.33-12.78.43-.64.83-1.27,1.64-1.56,6.52-2.32,12.53-5.69,18.6-8.93,1.13-.6,1.61-.69,1.76.79.31,3.06.87,6.1,1.08,9.16.28,4.16,1.64,8.13,1.65,12.38,0,3.73.4,7.54,1.26,11.23.17.77.35,1.72,1.22,1.78.91.06,1.13-.94,1.36-1.65,1.07-3.33,1.74-6.75,2.07-10.24.08-.84-.1-1.84.6-2.43,1.79-1.53,2.38-3.58,2.67-5.76.19-1.33.9-1.82,2.14-2.34,2.2-.92,4.49-1.06,6.74-1.54,3.8-.82,7.25-2.58,10.83-4.01,3.22-1.29,6.59-2.21,9.64-3.91,4.59-2.57,9.62-4.29,14.01-7.25,1.05-.71,1.62-.29,1.46.95-.26,2.1.08,4.16.32,6.23.58,4.78,3.21,8.62,8.84,7.03,4.13-1.16,8.32-2.31,11.89-4.91.93-.68,1.93-1.32,3-1.75,4.79-1.93,8.46-5.13,10.99-9.6,1.87-3.31,3.62-6.69,5.43-10.03.33-.62.88-1.33.49-1.95-1.61-2.51-.19-4.83.37-7.2.17-.71,0-1.49-.54-2-.76-.7-1.65-.47-2.42-.05-.6.32-1.29.74-1.58,1.31-1.15,2.22-2.81,4.08-4.23,6.11-3.83,5.45-7.8,10.81-11.74,16.19-1.43,1.96-3.56,1.94-5.66,1.79-.95-.06-1.58-.6-1.49-1.69.24-2.86.12-5.8.74-8.57,2.41-10.7,7-20.5,13.01-29.64,2.39-3.63,5.06-7.07,7.87-10.38.42-.51.8-1.46,1.53-1.19.94.34.37,1.35.36,2.06-.01,1.47-.14,2.94-.25,4.42-.13,1.71-.26,3.88,1.12,4.68,1.44.85,2.88-.91,4.23-1.78,1.39-.88,1.91-2.14,2.18-3.65.77-4.23.42-8.52.74-12.77.21-2.7-2-4.54-4.56-3.7ZM197.98,143.59c-.06.92-.2,1.84-.3,2.77-.3,2.71-.37,5.42.04,8.11.28,1.58-.52,2.46-1.84,3.12-3.04,1.52-6.03,3.12-9.06,4.65-.35.18-.78.74-1.2.2-.32-.39-.11-.84.18-1.25,4.1-5.66,7.38-11.81,10.8-17.87.22-.39.36-.95.97-.74.43.15.43.65.41,1.01ZM60.88,173.54c-.32-3.85-.6-7.7-.89-11.56-.32-4.24-.76-8.45-1.98-12.54-.37-1.24-1.06-2.31-2.51-2.42-5.22-.41-7.93,1.09-10.06,5.88-8.11,18.27-15.01,37.05-22.95,55.4-.41.95-.67,2.12-.26,2.95,1.08,2.23.16,4.37.06,6.55-.08,1.82-.96,3.63.2,5.44.21.33-.16,1.03-.23,1.55-.72,5.06-2.26,10.08-.89,15.76,11.22-20.03,16.17-42.21,25.73-62.54.86.6.73,1.37.85,2.12.88,5.47,1.37,11.02,3.48,16.22.68,1.68,1.16,3.9,3.24,4.18,2.37.32,3.4-1.87,4.46-3.55,1.48-2.36,2.57-5.01,4.24-7.21,3.33-4.4,6.49-8.89,9.46-13.53,3.57-5.58,7.13-11.18,10.7-16.77-.42,2.1-1.28,4-1.93,5.97-2.36,7.17-4.61,14.37-6.96,21.54-3.41,10.39-6.21,20.92-6.69,31.91-.11,2.43-.73,5,.58,7.19,2.02-3.08,4.09-6.15,5.71-9.5,5.13-10.63,9.3-21.65,12.78-32.9,4.77-15.44,11.95-30.15,13.94-46.44.34-2.81-1.38-5.09-3.56-3.78-2.88,1.73-6.43,2.44-8.71,4.98-2.99,3.32-5.23,7.33-9.3,9.62-.52.29-.92.84-1.29,1.33-2.31,3.01-4.53,6.1-6.5,9.35-3.24,5.36-6.51,10.71-9.81,16.15-.77-.41-.85-.91-.88-1.35ZM314.64,177.34c1.5-2.3,4.36-3.09,5.66-5.42,2.61-4.68,5.29-9.33,7.53-14.18,10.5-22.73,20.88-45.53,31.27-68.31,2.37-5.2,5.31-10.21,6.28-15.93.41-2.42,1.67-4.66,1.43-7.21-.28-3-1.77-3.95-4.51-2.81-1.18.49-2.13,1.22-2.88,2.26-1.28,1.78-2.25,3.71-3.17,5.68-.28.6-.38,1.55-1.62,1.05-2.45-.98-4.26-.37-5.76,1.75-1.31,1.85-2.24,3.92-2.98,6.04-4.33,12.33-8.6,24.69-12.87,37.04-1.26,3.64-4.24,4.5-7.21,2.01-.61-.51-1.25-.5-1.96-.42-1.48.17-2.87.58-4.24,1.18-.6.26-1.43.61-1.96,0-.47-.54.1-1.16.34-1.71,3.1-7.27,6.35-14.48,9.24-21.83,1.24-3.17,1.38-3.57-3.26-6.25-1.22-.71-3.78.16-4.87,1.74-.61.89-1.12,1.87-1.51,2.87-3.51,8.86-7.03,17.71-10.41,26.61-.63,1.65-1.56,2.3-3.18,2.49-2.36.27-4.53,1.18-6.29,2.76-1.18,1.06-2.78,2.34-1.84,4.12.89,1.69,1.74,3.85,4.53,3.32,1.58-.3,1.81.58,1.3,1.98-1.26,3.49-2.54,6.99-3.6,10.55-1.52,5.1-3.28,10.16-3.28,15.59,0,.67-.34,1.54.47,1.88.78.33,1.52-.15,2.08-.72,1.15-1.19,1.84-2.68,2.57-4.14,4.15-8.33,7.84-16.88,11.55-25.41.44-1.02.94-1.64,2.06-1.92,4.79-1.21,9.56-2.49,14.32-3.81,1.14-.32,1.46-.04,1.17,1.06-.18.67-.36,1.35-.59,2-3,8.57-6.74,16.82-10.46,25.1-3.49,7.76-6.87,15.6-6.4,24.99,1.34-1.48,2.27-2.75,3.07-3.98ZM93.49,204.36c1.07.45,1.45-.91,2-1.58,3.15-3.82,4.9-8.44,7.22-12.73,4.58-8.47,7.19-17.83,11.84-26.28,2.28-4.14,3.96-8.59,5.4-13.09.67-2.1,1.77-4.26.88-6.55-.45-1.17-.76-2.28-.81-3.57-.1-2.98-1.88-3.95-4.58-2.74-1.56.7-2.57,1.95-3.54,3.27-.78,1.06-1.18,2.44-2.36,3.14-2.45,1.46-3.52,3.81-4.48,6.31-2.61,6.85-5.74,13.46-6.3,21.02-.36,4.89-1.86,9.71-2.1,14.68-.06,1.25-.29,2.42-.73,3.61-1.4,3.86-2.71,7.76-2.96,11.81.1,1-.42,2.28.52,2.67Z"/>
  </g>
</svg>