<?xml version="1.0" encoding="UTF-8"?>
<svg id="Layer_2" data-name="Layer 2" xmlns="http://www.w3.org/2000/svg" viewBox="0 0 698.24 148.48">
  <defs>
    <style>
      .cls-1 {
        fill: #efeff3;
      }
    </style>
  </defs>
  <g id="Layer_1-2" data-name="Layer 1">
    <path class="cls-1" d="M494.7,22.71c.89.14,1.78.28,2.67.43,3.79.33,7.57.13,11.35-.12,8.88-.6,17.76-1.01,26.67-.65,3.47,1.01,7.09,1.18,10.62,1.86,2.76.89,5.73,1.1,8.53,2.74-4.15,1.41-8.13,2.55-12.24,3.22-1.6.26-3.13.88-4.8.79-.77-.04-1.17.47-1.09,1.4.7,8.27-1.51,16.17-3.31,24.08-.92,4.04-2.08,8.23-1.45,12.13.78,4.83-1.24,9.07-1.3,13.63-.03,1.8.25,2.11,2.01,1.7,7.59-1.78,15.34-2.81,22.85-4.97,2.6-.75,5.12-1.77,7.68-2.69,1.35-.48.97-1.06.13-1.77-5.82-4.9-11.47-9.97-16.03-16.14-1.48-2-3.94-2.71-5.93-4.02-4.18-2.73-4.2-8.54.41-10.52,11.53-4.95,22.77-10.66,34.94-14,1.55-.43,3.4-1.04,4.74.67,1.53,1.95,3.29,3.86,2.05,6.67-.82,1.86.23,3.49.7,5.16.83,3.01-.89,5.32-4.03,5.31-.97,0-1.34-.61-1.62-1.39-.49-1.39-1.01-2.77-1.48-4.17-.32-.96-.83-1.08-1.76-.71-5.33,2.11-10.69,4.15-16.04,6.21-.44.17-.9.48-.97,1-.03.23-.23.41-.49.56-.53.31-.6,1.06-.15,1.48,3.8,3.58,16.17,15.26,17.46,16.69,1.13,1.26,2.09,2.7,2.94,4.17.76,1.32,1.36,1.4,2.05.08.65-1.23,1.51-2.45,1.73-3.77,1.06-6.42,4.92-11.38,8.7-16.23,5-6.4,10.66-12.22,17.06-17.33,4.49-3.59,9.72-5.04,15.12-6,2.66-.47,4.58,1.66,4,4.3-.91,4.17-1.18,8.46-2.53,12.54-.48,1.46-1.17,2.63-2.67,3.31-1.47.67-3.13,2.21-4.44,1.17-1.26-.99-.82-3.12-.45-4.8.32-1.44.65-2.88.87-4.34.11-.7.81-1.62-.07-2.09-.68-.37-1.19.52-1.69.96-3.25,2.89-6.37,5.92-9.24,9.18-7.24,8.21-13.15,17.26-17.04,27.52-1.01,2.66-1.3,5.58-1.93,8.38-.24,1.07.31,1.69,1.23,1.88,2.06.44,4.17.76,5.86-.98,4.65-4.78,9.33-9.53,13.89-14.39,1.69-1.8,3.59-3.41,5.04-5.46.37-.52,1.11-.84,1.75-1.07.82-.3,1.74-.41,2.39.4.46.57.52,1.37.25,2.06-.88,2.26-2.62,4.36-1.38,7.08.3.67-.34,1.29-.76,1.86-2.26,3.05-4.46,6.15-6.78,9.17-3.13,4.07-7.21,6.73-12.23,7.97-1.11.28-2.2.77-3.22,1.31-3.9,2.08-8.21,2.63-12.45,3.2-5.8.78-7.87-3.39-7.77-8.2.04-2.09,0-4.17.56-6.22.33-1.2-.18-1.69-1.31-1.14-4.76,2.32-9.98,3.31-14.89,5.21-3.26,1.26-6.73,1.7-10.1,2.53-3.74.92-7.41,2.17-11.28,2.45-2.3.16-4.59-.02-6.89.58-1.3.34-2.08.73-2.44,2.02-.6,2.12-1.47,4.06-3.46,5.33-.77.49-.74,1.5-.93,2.32-.82,3.41-1.96,6.7-3.49,9.85-.32.67-.69,1.63-1.58,1.44-.85-.18-.89-1.15-.96-1.93-.33-3.78-.19-7.6.33-11.29.59-4.21-.2-8.33.1-12.49.22-3.06.09-6.15.22-9.22.06-1.48-.43-1.47-1.63-1.03-6.46,2.36-12.89,4.85-19.67,6.23-.85.17-1.33.74-1.84,1.32-3.48,3.97-7.11,7.79-11.03,11.34-.67.61-1.25,1.4-2.36,1.49-.08-.19-.29-.45-.23-.55,2.07-3.35,1.11-7.54,3.13-10.92,1.99-3.33,3.91-6.69,6.18-9.85,7.12-9.93,15.54-18.79,23-28.44,1.18-1.53,2.41-3.02,3.66-4.49,1.38-1.62,2.77-3.16,5.14-3.67,2.08-.44,3.88-4.62,3.37-6.85-.2-.89-.84-.8-1.44-.7-5.08.85-10.22.66-15.33.81-1.57.05-2.57.72-3.36,2.05-9.44,15.77-19.28,31.28-29.5,46.55-9.49,14.17-17.06,29.53-26.98,43.43-2.48,3.47-5.08,6.85-8.59,9.82-.4-1.53-.22-2.86.13-4.19,2.06-7.92,5.57-15.22,9.44-22.39,3.68-6.82,8.26-13.15,11.63-20.11,2.97-6.12,5.64-12.38,9.33-18.12,7.08-11.03,14-22.15,20.65-33.44.33-.56,1.18-1.08.72-1.81-.42-.67-1.29-.32-1.96-.35-3.17-.16-6.36.11-9.53-.35-1.79-.26-2.97.33-3.93,2.07-9.69,17.59-20.47,34.52-31.27,51.44-2.34,3.66-5.04,7.08-7.99,10.28-1.33,1.44-2.33,3.09-3.31,4.77-.3.52-.7,1.24-1.41.92-.86-.39-.21-1.06-.03-1.59.32-.96.59-1.94,1.04-2.83.93-1.84.29-3.73.38-5.6.26-5.55,2.68-10.5,5.09-15.32,6.63-13.28,13.07-26.67,20.38-39.61.27-.47.49-.97.8-1.42,2.37-3.49,2.05-2.99-1.82-3.9-1.6-.38-3.46-.26-5.08.12-4.22.97-8.5.48-12.73.88-1.04.1-2.2.04-2.06-1.46.22-2.51-1.34-2.56-3.11-2.38-.46.05-.91.17-1.37.26-.86.17-1.9.88-2.45-.34-.61-1.35.47-2.11,1.43-2.52,3.81-1.63,7.53-3.43,11.9-3.32,7.52.19,14.99-.43,22.48-1.34,4.87-.6,9.9.29,14.87.07,2.95-.13,5.9-.09,8.85-.13.85-.01,1.75.08,2.26-.84.64.04,1.28.07,1.92.11,0,0,.03-.03.03-.03l.02.04ZM518.46,67.26c-.03-2.72.41-5.4,1.09-8.04.23-.9.5-1.79.69-2.7.07-.35.14-.84-.26-1.05-.58-.3-.8.24-1.07.59-4.23,5.53-8.34,11.16-13.19,16.18-.35.37-.62.78-.36,1.22.34.59.85.1,1.22-.03,3.21-1.09,6.4-2.25,9.62-3.34,1.4-.47,2.32-1.23,2.27-2.83ZM380.29,66.97c.23-3.86.49-7.71.74-11.57.28-4.24.44-8.48-.21-12.7-.19-1.28-.73-2.43-2.15-2.75-5.11-1.13-8.01-.03-10.78,4.42-10.59,16.96-20.06,34.58-30.48,51.63-.54.89-.96,2.01-.67,2.89.76,2.36-.45,4.35-.85,6.49-.34,1.79-1.46,3.46-.57,5.41.16.36-.3.99-.45,1.51-1.42,4.91-3.65,9.66-3.09,15.48,13.92-18.26,21.93-39.53,34.24-58.31.77.71.53,1.46.55,2.22.1,5.53-.18,11.11,1.17,16.55.44,1.76.61,4.02,2.62,4.59,2.3.65,3.63-1.37,4.91-2.89,1.8-2.13,3.24-4.6,5.21-6.55,3.91-3.89,7.67-7.89,11.26-12.07,4.32-5.03,8.63-10.07,12.94-15.1-.71,2.02-1.83,3.78-2.75,5.64-3.34,6.77-6.58,13.58-9.91,20.35-4.83,9.81-9.07,19.84-11.09,30.66-.45,2.39-1.43,4.84-.43,7.2,2.43-2.77,4.91-5.52,6.98-8.61,6.57-9.81,12.24-20.13,17.26-30.79,6.88-14.62,16.05-28.18,20.31-44.02.73-2.73-.65-5.23-3-4.24-3.09,1.31-6.71,1.52-9.32,3.71-3.42,2.87-6.21,6.52-10.56,8.22-.55.22-1.03.7-1.47,1.13-2.71,2.66-5.34,5.4-7.74,8.35-3.96,4.85-7.94,9.69-11.98,14.61-.71-.52-.71-1.02-.69-1.46ZM631.02,106.28c1.8-2.07,4.75-2.45,6.36-4.57,3.23-4.26,6.54-8.5,9.44-12.99,13.58-21.04,27.05-42.15,40.53-63.26,3.08-4.82,6.69-9.37,8.45-14.89.75-2.34,2.31-4.38,2.43-6.94.14-3.01-1.2-4.16-4.07-3.42-1.23.32-2.28.91-3.17,1.84-1.51,1.58-2.75,3.36-3.93,5.18-.36.55-.59,1.48-1.75.81-2.29-1.32-4.17-.96-5.95.93-1.56,1.65-2.77,3.57-3.8,5.56-6.02,11.6-11.97,23.24-17.93,34.87-1.75,3.42-4.83,3.86-7.42.98-.53-.59-1.17-.67-1.89-.69-1.49-.04-2.93.18-4.37.57-.64.18-1.5.4-1.94-.27-.39-.6.26-1.14.57-1.65,4.09-6.77,8.32-13.45,12.2-20.32,1.67-2.96,1.86-3.34-2.36-6.65-1.11-.87-3.76-.38-5.06,1.04-.73.79-1.37,1.7-1.9,2.63-4.71,8.28-9.44,16.55-14.04,24.89-.85,1.54-1.86,2.06-3.5,2.02-2.38-.06-4.65.54-6.62,1.85-1.32.88-3.08,1.92-2.4,3.82.65,1.8,1.19,4.06,4.02,3.92,1.61-.08,1.71.83,1.01,2.14-1.74,3.28-3.49,6.56-5.04,9.94-2.22,4.84-4.67,9.6-5.43,14.97-.09.66-.55,1.47.21,1.92.73.43,1.53.07,2.16-.42,1.31-1.01,2.2-2.4,3.12-3.74,5.28-7.67,10.13-15.61,15-23.54.58-.95,1.16-1.49,2.31-1.61,4.91-.53,9.82-1.12,14.72-1.76,1.18-.15,1.45.16,1.01,1.21-.27.64-.54,1.28-.86,1.9-4.18,8.06-9.03,15.71-13.87,23.38-4.54,7.2-8.98,14.49-9.84,23.84,1.53-1.27,2.64-2.4,3.6-3.51ZM408.26,102.06c.99.6,1.56-.7,2.2-1.28,3.65-3.34,6.03-7.67,8.93-11.59,5.73-7.74,9.61-16.65,15.41-24.36,2.84-3.78,5.13-7.95,7.18-12.2.96-1.98,2.34-3.97,1.79-6.37-.28-1.22-.44-2.37-.3-3.64.32-2.96-1.31-4.18-4.15-3.35-1.64.48-2.81,1.57-3.97,2.74-.92.94-1.51,2.25-2.77,2.78-2.63,1.1-4.02,3.28-5.32,5.62-3.54,6.42-7.57,12.52-9.19,19.93-1.05,4.79-3.2,9.36-4.13,14.24-.23,1.22-.63,2.35-1.23,3.48-1.92,3.63-3.77,7.3-4.59,11.28-.04,1-.73,2.19.14,2.72ZM170.67,124.34c-.78-.71-1.18-1.67-1.44-2.63-.97-3.53-3.66-5.88-5.82-8.58-.88-1.1-2.17-1.1-3.42-.54-.73.33-1.54.77-1.85-.4-2.06-7.54-6.89-13.9-9.09-21.37-.7-2.38-1.38-4.76-2.07-7.15-.17-.58-.09-1.27-.72-1.6-3.63,6.84-9.18,12.34-13.06,19.01-3.85,6.63-7.51,13.4-12.08,19.59-1.2,1.63-2.48,3.19-4.2,4.31-.63.41-1.37,1.1-2.07.45-.62-.58.05-1.3.37-1.88,1.48-2.64,2.9-5.31,4.67-7.77,1.05-1.46,1.86-2.8-.84-3.59-1.57-.46-.28-1.55.06-2.19,2.27-4.27,3.41-9.05,6.6-13.6-1.92.66-2.89,1.14-3.59,2.45-.88,1.64-2.83,2.11-4.4,2.89-8.69,4.27-17.41,8.48-26.16,12.64-2.66,1.26-5.42,2.3-8.15,3.4-4.29,1.73-8.79,2.94-12.15,6.53-1.68,1.79-1.88,1.32-2.72-.72-.37-.91-.77-3.22-3.09-2.49-1.01.31-1.56-.26-1.5-1.42.08-1.48.3-2.78,1.22-4.11,4.09-5.94,8.36-11.75,12.8-17.62-.77.51-1.55,1.02-2.32,1.53-15.01,9.69-29.34,20.33-43.88,30.7-4.74,3.38-9.55,6.66-14.75,9.3-4.24,2.16-7.58,5.7-11.94,7.65-.42.19-.81.48-1.25.62-1.13.36-2.61,1.39-3.36.11-.68-1.16-.72-2.86.3-4.18,1.1-1.42,2.43-2.62,3.89-3.66,1.21-.86,2.56-1.68,3.14-3.04,1.32-3.1,4.77-3.18,6.86-5.12,4.44-4.14,9.28-7.77,14.32-11.13,1.64-1.09,1.82-3.01,2.67-4.54,1.45-2.63,3.06-5.27,3.92-8.12,3.27-10.9,11.32-18.94,16.8-28.51,3.93-6.85,8.48-13.34,12.58-20.1,1.69-2.79,4.25-4.45,6.81-6.09,2.47-1.59,2.84-2.55,1.12-4.89-1.2-1.62-2.4-3.25-3.57-4.89-1.15-1.61-1.98-3.31-1.5-5.4.45-1.97-1.32-2.82-2.25-4.07-.97-1.3-1.37-2.67-.5-4.07.94-1.51,2.47-2.19,4.23-1.74,1.54.39,2.23,1.83,3.09,3.01.66.89,1.03,2.11,2.52,2.28-.09-1.28-.18-2.48-.24-3.7-.03-.58.16-1.11.73-1.33.67-.26.99.31,1.27.75,1.45,2.2,2.89,4.41,4.31,6.64.67,1.05,1.23,2.17,1.92,3.19,2.79,4.11,4.93,8.55,9.04,11.87,4.27,3.44,6.78,8.61,9.7,13.27.97,1.56,1.8,2.23,3.02.14.85-1.46,1.99-2.77,3.04-4.11,1.27-1.61,2.45-3.06,1.91-5.49-.44-1.98,1.34-3.73,3.74-3.84,2.12-.1,3.4-1.78,5.29-2.21.18-.04.43-.34.43-.51-.12-4.17,4.01-4.26,6.15-6.2.95-.86,3.2-2.06,3.84.95.16.77.9.71,1.53.73,5.87.12,11.73.66,17.63.36,3.86-.2,7.92-.16,9.71,4.48.24.62.7.34,1.11.03,2.8-2.15,2.81-2.38.07-4.8-.47-.41-.91-.85-1.4-1.22-.98-.74-1.22-1.31-.15-2.35,1.88-1.82,1.93-3.35.02-5.2-2.39-2.31-2.83-5.91-5.51-7.99-.34-.27-.17-.76.18-1,1.41-.98,3.24-1.72,4.52-.62,2.41,2.08,5.33,3.14,7.96,4.76,3.45,2.12,6.68,4.51,9.41,7.54,1.73,1.92,4.19,2.91,6.22,4.45,1.56,1.18,3.06,2.3,3.82,4.24.67,1.72,2.22,2.75,3.61,3.87,2.19,1.77,2.81,4.34,1.63,6.94-.2.44-.88.87-.2,1.38,2.37,1.74.21,2.44-.83,3.07-5.11,3.11-10.57,5.56-15.85,8.34-4.04,2.13-7.92,4.55-11.85,6.87-1.8,1.06-2.21,2.59-1.54,4.59,1.74,5.14,3.37,10.33,5.08,15.48.39,1.18.81,2.47,2.32,2.62,1.49.15,2.09-.99,2.76-2.09,5-8.11,10.66-15.79,15.23-24.19,3-5.51,6.02-11.03,9.91-15.99,1.56-1.99,3.57-3.59,4.7-5.96.46-.98,1.73-1.57,2.82-1.1,1.27.55,1.8-.03,2.5-.86,1.38-1.64,4.01-3.18,4.03-4.79.02-2.1-1.9-4.27-3.15-6.3-.75-1.21-1.05-2.06.21-3.16,1.12-.98,1.24-2.48,1.11-3.9-.17-1.93-.46-3.85-.69-5.78-.09-.79-.74-1.82.41-2.22.98-.34,2.37-.78,3.09.16,2.68,3.49,6.98,5.24,9.3,9.18,2.44,4.13,5.46,7.9,8.15,11.88,2.37,3.5,3.54,7.36,3.11,11.63-.09.87.12,1.58.69,2.35,1.53,2.05,1.13,3.42-1.14,4.68-7.05,3.92-14.12,7.8-21.14,11.76-3.73,2.11-6.94,4.96-10.3,7.58-.7.55-.68,1.01-.3,1.77,2.93,5.93,6.69,11.3,10.98,16.32.47.55.93.99,1.33-.02.4-1,1.32-1.92,1.14-3.01-.51-2.97,1.1-5.27,2.37-7.58,5.46-9.95,12.28-18.99,19.05-28.06.83-1.11,1.88-1.84,3.33-1.86.97-.01,1.78-.47,2.6-.92,1.34-.74,2.92-1.98,4.22-.61,1.3,1.37,1.3,3.21.47,5.18-3.6,8.58-9.2,15.95-14.16,23.7-4.38,6.86-8.84,13.67-13.33,20.46-.67,1.02-.36,1.62.24,2.45,2.37,3.25,4.88,6.42,6.57,10.12.81,1.79,1.47,3.59,1.29,5.6-3.53-.68-7.15-.85-10.62-1.86-.05-.21-.09-.59-.17-.6-3.68-.37-5.93-2.81-7.93-5.53-2.66-3.63-5.27-7.29-7.81-11.01-3.67-5.37-7.71-10.51-10.13-16.66-.72-1.84-1.3-.33-1.72.28-3.97,5.83-7.95,11.65-12.31,17.2-.56.71-.95,1.37-.55,2.32,1.99,4.72,2.49,9.71,2.6,14.76-.89-.14-1.78-.28-2.67-.43.06,0,.12,0,.18.01-.07.04-.15.11-.21.11-.2-.02-.2-.08-.02-.13-.64-.04-1.28-.07-1.92-.11ZM86.77,105.85c9.3-4.2,19-6.84,28.57-9.83,3.8-1.19,7.45-3.15,11.63-2.77.83.08,1.01-.63,1.3-1.13,4.27-7.49,9.56-14.29,14.4-21.4,3.18-4.67,6.04-9.56,9.95-13.72,1.54-1.64,3-3.43,4.16-6.1-2.93,1.34-5.47,1.95-8.15,2.29-8.48,1.08-16.88,2.83-25.45,3.2-.6.03-1.38-.17-1.48.71-.29,2.76-2.44,4.41-3.78,6.55-1.2,1.92-2.94,3.5-4.12,6.1,4.36-1.54,8.43-1.49,12.5-1.52,1.56-.01,3.14.21,3.48,1.99.57,2.9-.25,4.37-3.04,5.65-7.46,3.41-15.38,5.65-22.86,9.05-1.33.6-2.39,1.26-3.25,2.43-4,5.44-8,10.87-12.4,15.99-.58.67-1.38,1.26-1.46,2.51ZM47.98,107.88c4.34-2.98,8.78-5.82,12.98-8.98,9.3-7,19.14-13.23,28.62-19.96,1.96-1.39,2.13-2.43.89-4.28-2.81-4.19-5.58-8.41-8.21-12.7-1.08-1.76-1.66-1.41-2.72-.02-7,9.19-14.17,18.25-21.08,27.5-4.24,5.67-7.71,11.85-10.48,18.44ZM175.88,56.87c-2.86-1.65-5.19-4.01-7.72-6.15-.49-.41-.95-.97-1.42,0-2.66,5.51-6.39,10.37-9.48,15.62-.27.46-1.03.95-.37,1.6.5.49,1.17.31,1.76.11.58-.2,1.15-.45,1.7-.73,5.56-2.78,11.27-5.34,15.52-10.45ZM198.53,70.6l.46.46c5.3-3.49,11.04-6.18,16.61-9.16,1.06-.57,1.03-1.09.6-2.01-1.26-2.66-2.43-5.36-3.69-8.02-.28-.59-.3-1.63-1.11-1.59-.84.04-1.18,1.07-1.3,1.74-.45,2.57-2.14,4.42-3.51,6.47-2.69,4.03-5.37,8.07-8.06,12.11ZM347.11,36.82s0,.1,0,.1c.85-1.09,1.72-2.19,2.56-3.29.29-.38.52-.82.12-1.25-.32-.34-.7-.15-1.07-.02-2.07.69-4.03,1.62-5.91,2.71-9.6,5.59-18.84,11.71-27.66,18.48-.61.47-1.23.95-1.88,1.37-.32.21-.77.27-1-.17-.17-.32.08-.53.28-.78,1.47-1.83,2.94-3.67,4.37-5.54,3.95-5.18,8.08-10.22,11.21-15.97.56-1.04,1.24-2.12,1.03-3.27-.26-1.46-.17-2.71.64-3.97.45-.71.21-1.51-.29-2.18-.59-.78-1.38-.52-2.14-.36-1.31.27-2.16,1.21-2.92,2.19-1.9,2.45-3.75,4.95-5.61,7.43-.57.76-1.13,1.53-2.22,1.43-1.59-.14-2.66.85-3.61,1.84-1.61,1.67-3.23,3.38-4.54,5.28-7.01,10.13-14,20.29-20.87,30.52-5.18,7.71-11.15,14.92-15.1,23.43-1.69,3.64-2.62,7.55-4.59,11.11-1.84,3.35-4.31,6.82-2.45,10.96,3.32-2.59,6-5.91,8.3-9.52,5.64-8.85,12.81-16.56,18.66-25.25.26-.39,1.68-2.25,2.21-2.13.55.12,3.6,4.74,4.44,6.07,4.58,7.21,7.37,13.93,13.73,19.54.58.52,1.39,1.08,2.1.84,1.76-.6,1.53-4.7,2.15-3.58,2.19,4,7.41,10.52,10.77,13.37.38-1.17.38-2.07.08-2.83-1.54-3.9-1.93-8.15-3.75-11.96-4.62-9.7-11.15-18.23-16.71-27.35-.69-1.13-1.22-1.81.23-2.8,12.07-8.18,23.64-17.09,35.83-25.11,7.25-4.77,14.49-9.61,21.09-15.29,1.06-.91,2.91-2,1.88-3.48-.84-1.22-2.59-.04-3.82.48-5.58,2.38-10.62,5.73-15.66,9.07l.1-.1ZM241,115.27c6.23-1.85,12.29-4.25,16.92-8.86,2.73-2.72,5.67-4.97,8.8-7.1.77-.52,1.45-1.16,2.2-1.71,1.62-1.19,1.25-2.71.67-4.2-.57-1.46-1.88-1.07-3.02-.97-1.2.1-2.22.68-3.17,1.36-3.98,2.85-8.29,5.16-12.65,7.36-3.73,1.88-7.44,3.86-11.6,4.69-.91.18-1.93.34-2.58-.54-.61-.82,0-1.62.3-2.4,1.85-4.83,4.82-8.96,7.78-13.16,4.64-6.57,9.94-12.63,14.28-19.45,2.42-3.81,5.77-7.13,9.1-10.24,1.86-1.75,3.91-3.51,6.33-4.62.54-.25,1.25-.52,1.75-.02.48.48-.12.98-.23,1.48-1.09,4.6-2.2,9.2-3.18,13.82-.33,1.58.42,2.13,2.03,1.52,2.02-.77,3.35-1.89,3.73-4.24.36-2.2,1.3-4.3,1.94-6.45.33-1.11,1.11-1.5,2.18-1.79,1.6-.44,3.01-1.18,3.28-3.17.54-3.94,1.83-7.66,3.27-11.37,1.5-3.84-1.15-6.94-5.18-6.35-3.13.46-5.94,1.77-8.58,3.42-3.92,2.46-7.41,5.22-10.48,8.94-3.25,3.94-7.16,7.49-10.8,11.18-9.66,9.79-17.35,21.03-23.9,33.07-2.51,4.61-4.92,9.31-4.04,14.91.59,3.76,1.86,5.12,5.79,5.65,2.95.1,6.03.14,9.06-.76ZM236.9,52.18c3.54-1.9,7.11-3.76,10.57-5.79,1.58-.92,2.42-.53,3.42.84,1.42,1.95,2.72,3.95,3.94,6.03.99,1.69,2.71,1.73,3.77.1.52-.8.57-1.74.31-2.69-.57-2.09-1.17-4.17-2.46-5.95-1.01-1.39-.81-2.18.81-3.02,4.81-2.51,8.99-6.06,13.81-8.57.99-.51,1.59-1.33.99-2.48-.59-1.12-1.54-1.49-2.74-.99-.78.33-1.56.68-2.32,1.06-.56.28-1.09.7-1.66.07-1.27-1.42-2.61-.64-3.8,0-2.25,1.2-4.6,2.27-6.56,3.94-1.16.98-1.77.76-2.4-.59-1.19-2.52-2.44-5.01-3.85-7.42-1.04-1.78-3.57-1.71-3.96.18-.47,2.25-.88,4.14-2.64,5.94-1.3,1.33.43,3.04,1.49,4.2,1.56,1.71,1.68,3.01-.31,4.46-3.28,2.4-5.85,5.51-8.3,8.72-.72.94-1.24,1.78-.07,2.8.69-.29,1.35-.51,1.96-.84ZM347.11,36.92s0-.1,0-.1l-.1.1s.09,0,.09,0Z"/>
  </g>
</svg>